<svg xmlns="http://www.w3.org/2000/svg" xmlns:xlink="http://www.w3.org/1999/xlink" width="500" zoomAndPan="magnify" viewBox="0 0 375 374.999991" height="500" preserveAspectRatio="xMidYMid meet" version="1.0"><defs><g/><clipPath id="6a6be049cb"><path d="M 112.5 84.316406 L 262.5 84.316406 L 262.5 207 L 112.5 207 Z M 112.5 84.316406 " clip-rule="nonzero"/></clipPath></defs><g fill="#000000" fill-opacity="1"><g transform="translate(87.060778, 233.634402)"><g><path d="M 7.820312 -0.0625 C 12.703125 -0.6875 12.390625 -6.882812 12.390625 -10.574219 C 12.390625 -13.390625 12.078125 -17.894531 14.515625 -20.023438 C 16.269531 -21.523438 19.585938 -22.089844 21.585938 -23.339844 C 25.78125 -25.90625 29.785156 -29.847656 29.160156 -35.167969 C 27.96875 -45.054688 16.394531 -46.929688 8.324219 -46.679688 C 1.125 -46.429688 1.816406 -39.796875 1.5 -33.914062 C 1.125 -26.40625 1.3125 -18.898438 0.9375 -11.324219 C 0.75 -7.007812 1.5 0.75 7.820312 -0.0625 Z M 16.082031 -27.59375 C 12.640625 -26.53125 13.203125 -28.347656 13.328125 -31.035156 C 13.390625 -33.789062 12.140625 -40.109375 16.394531 -37.980469 C 18.398438 -36.917969 19.585938 -34.351562 19.460938 -32.164062 C 19.398438 -29.910156 18.269531 -28.28125 16.082031 -27.59375 Z M 16.082031 -27.59375 "/></g></g></g><g fill="#000000" fill-opacity="1"><g transform="translate(116.28189, 233.634402)"><g><path d="M 10.386719 -0.125 C 14.265625 -0.3125 18.144531 -0.25 21.964844 -0.4375 C 25.15625 -0.625 27.53125 -1.0625 28.785156 -4.191406 C 29.535156 -6.257812 29.972656 -10.011719 27.90625 -11.574219 C 25.59375 -13.265625 21.964844 -12.515625 19.335938 -12.640625 C 16.957031 -12.765625 10.824219 -14.703125 14.390625 -18.019531 C 16.519531 -20.023438 19.835938 -17.644531 22.339844 -18.335938 C 25.09375 -19.148438 25.71875 -22.277344 25.40625 -24.839844 C 25.21875 -27.03125 24.464844 -28.28125 22.339844 -29.097656 C 20.273438 -29.847656 15.957031 -28.472656 14.328125 -29.660156 C 12.140625 -31.222656 14.140625 -34.164062 15.707031 -34.476562 C 18.082031 -35.042969 20.648438 -33.414062 23.152344 -34.414062 C 25.34375 -35.292969 26.46875 -37.355469 26.15625 -39.734375 C 25.71875 -43.050781 22.964844 -43.613281 20.085938 -44.050781 C 15.832031 -44.675781 4.566406 -46.804688 2.691406 -41.546875 C 1.878906 -39.296875 2.316406 -36.167969 2.191406 -33.851562 C 2.066406 -29.660156 1.878906 -25.46875 1.691406 -21.273438 C 1.5 -17.707031 1.375 -14.140625 1.1875 -10.574219 C 1.0625 -7.757812 0.25 -3.691406 2.503906 -1.5 C 4.566406 0.5 7.882812 -0.0625 10.386719 -0.125 Z M 10.386719 -0.125 "/></g></g></g><g fill="#000000" fill-opacity="1"><g transform="translate(146.629297, 233.634402)"><g><path d="M 15.519531 0 C 25.53125 -0.1875 20.460938 -24.902344 19.710938 -29.910156 C 22.214844 -29.910156 26.96875 -29.410156 28.660156 -31.597656 C 30.410156 -33.789062 28.847656 -36.792969 26.59375 -37.855469 C 23.277344 -39.421875 18.960938 -38.859375 15.394531 -39.046875 C 12.203125 -39.234375 6.507812 -40.796875 3.628906 -39.484375 C 1.125 -38.359375 0.25 -35.355469 1.4375 -32.976562 C 3.191406 -29.285156 8.007812 -29.785156 11.386719 -29.972656 C 11.636719 -22.902344 10.886719 -16.019531 10.636719 -9.011719 C 10.449219 -5.445312 10.636719 0.0625 15.519531 0 Z M 15.519531 0 "/></g></g></g><g fill="#000000" fill-opacity="1"><g transform="translate(176.038121, 233.634402)"><g><path d="M 20.835938 -1 C 30.222656 -4.566406 31.160156 -18.207031 29.597656 -26.65625 C 27.84375 -36.042969 19.273438 -39.859375 10.511719 -36.730469 C -0.75 -32.726562 -0.1875 -20.335938 2.691406 -10.824219 C 3.941406 -6.632812 5.257812 -3.003906 9.511719 -1.125 C 12.953125 0.375 17.269531 0.3125 20.835938 -1 Z M 13.140625 -9.449219 C 10.699219 -11.953125 10.886719 -19.023438 11.890625 -22.214844 C 12.640625 -24.464844 16.519531 -27.59375 19.210938 -26.15625 C 22.777344 -24.152344 21.585938 -15.519531 20.773438 -12.328125 C 19.773438 -8.636719 16.707031 -5.820312 13.140625 -9.449219 Z M 13.140625 -9.449219 "/></g></g></g><g fill="#000000" fill-opacity="1"><g transform="translate(207.198961, 233.634402)"><g><path d="M 7.820312 -0.0625 C 12.703125 -0.6875 12.390625 -6.882812 12.390625 -10.574219 C 12.390625 -13.390625 12.078125 -17.894531 14.515625 -20.023438 C 16.269531 -21.523438 19.585938 -22.089844 21.585938 -23.339844 C 25.78125 -25.90625 29.785156 -29.847656 29.160156 -35.167969 C 27.96875 -45.054688 16.394531 -46.929688 8.324219 -46.679688 C 1.125 -46.429688 1.816406 -39.796875 1.5 -33.914062 C 1.125 -26.40625 1.3125 -18.898438 0.9375 -11.324219 C 0.75 -7.007812 1.5 0.75 7.820312 -0.0625 Z M 16.082031 -27.59375 C 12.640625 -26.53125 13.203125 -28.347656 13.328125 -31.035156 C 13.390625 -33.789062 12.140625 -40.109375 16.394531 -37.980469 C 18.398438 -36.917969 19.585938 -34.351562 19.460938 -32.164062 C 19.398438 -29.910156 18.269531 -28.28125 16.082031 -27.59375 Z M 16.082031 -27.59375 "/></g></g></g><g fill="#000000" fill-opacity="1"><g transform="translate(236.420073, 233.634402)"><g><path d="M 1.125 -39.484375 C 3.691406 -30.847656 15.207031 -38.484375 13.203125 -44.800781 C 14.203125 -47.929688 8.699219 -49.121094 6.757812 -48.558594 C 3.128906 -47.554688 0.0625 -43.175781 1.125 -39.484375 Z M 9.324219 -0.875 C 11.199219 -2.253906 11.449219 -4.566406 11.890625 -6.695312 C 13.265625 -13.703125 14.828125 -23.527344 11.703125 -30.285156 C 10.261719 -33.351562 6.632812 -35.480469 3.941406 -32.664062 C 2.003906 -30.597656 2.003906 -26.09375 1.753906 -23.527344 C 1.3125 -17.957031 -0.0625 -8.511719 2.378906 -3.253906 C 3.691406 -0.5 6.570312 1.0625 9.324219 -0.875 Z M 9.324219 -0.875 "/></g></g></g><g fill="#000000" fill-opacity="1"><g transform="translate(250.874192, 233.634402)"><g><path d="M 4.816406 -0.375 C 7.070312 0.3125 9.886719 0.125 11.386719 -1.753906 C 13.015625 -3.753906 12.515625 -8.699219 14.328125 -10.199219 C 15.332031 -10.949219 24.089844 -10.261719 24.402344 -10.011719 C 26.09375 -8.574219 26.40625 -4.566406 27.65625 -2.753906 C 29.410156 -0.1875 31.726562 -0.0625 34.164062 -2.003906 C 36.605469 -4.003906 36.355469 -6.070312 35.355469 -8.824219 L 28.03125 -29.410156 C 26.28125 -34.414062 25.09375 -42.113281 18.523438 -41.988281 C 12.703125 -41.800781 9.824219 -38.296875 8.132812 -33.164062 C 6.132812 -27.09375 4.253906 -20.960938 2.753906 -14.765625 C 1.625 -10.136719 -1.625 -2.253906 4.816406 -0.375 Z M 17.207031 -19.085938 C 17.769531 -20.960938 18.398438 -22.839844 18.960938 -24.714844 C 19.460938 -23.027344 20.023438 -21.398438 20.585938 -19.710938 C 19.460938 -19.523438 18.335938 -19.273438 17.207031 -19.085938 Z M 17.207031 -19.085938 "/></g></g></g><g clip-path="url(#6a6be049cb)"><path fill="#070505" d="M 237.859375 175.613281 C 238.425781 175.320312 238.71875 175.191406 238.988281 175.023438 C 239.824219 174.496094 240.730469 174.167969 241.710938 174.035156 C 244.566406 173.636719 247.433594 173.484375 250.296875 173.933594 C 252.277344 174.277344 254.144531 174.929688 255.910156 175.890625 C 256.4375 176.183594 256.925781 176.53125 257.375 176.9375 C 257.96875 177.453125 258.507812 178.035156 259.082031 178.570312 C 260.738281 180.105469 261.644531 182.066406 262.246094 184.191406 C 262.410156 184.679688 262.472656 185.183594 262.441406 185.699219 C 262.257812 187.261719 262.117188 188.847656 261.71875 190.363281 C 261.152344 192.515625 259.59375 193.914062 257.621094 194.820312 C 256.460938 195.324219 255.28125 195.367188 254.085938 194.953125 C 253.382812 194.734375 252.691406 194.464844 251.957031 194.203125 C 251.820312 194.316406 251.6875 194.4375 251.558594 194.5625 C 249.910156 196.375 247.808594 197.207031 245.410156 197.386719 C 244.375 197.457031 243.378906 197.300781 242.414062 196.910156 C 241.902344 196.710938 241.390625 196.503906 240.820312 196.273438 C 239.734375 197.101562 238.464844 197.171875 237.144531 197.070312 C 235.039062 196.875 233.066406 196.246094 231.234375 195.191406 C 230.34375 194.671875 229.578125 194.003906 228.945312 193.1875 C 228.710938 192.90625 228.488281 192.609375 228.21875 192.261719 C 227.90625 192.492188 227.613281 192.707031 227.324219 192.921875 C 224.410156 195.101562 221.308594 196.921875 217.820312 198.011719 C 216.097656 198.585938 214.335938 198.957031 212.53125 199.128906 C 209.453125 199.367188 206.429688 199.164062 203.519531 197.996094 C 202.234375 197.480469 200.917969 197.050781 199.570312 196.5625 C 199.40625 197.300781 199.546875 197.9375 199.585938 198.570312 C 199.679688 199.9375 199.453125 201.25 198.917969 202.507812 C 198.519531 203.40625 197.988281 204.210938 197.320312 204.929688 C 195.53125 206.917969 191.894531 207.316406 189.605469 205.421875 C 187.8125 203.9375 186.65625 202.117188 186.359375 199.785156 C 186.34375 199.652344 186.300781 199.519531 186.246094 199.296875 C 186.035156 199.339844 185.824219 199.402344 185.621094 199.484375 C 182.65625 201.050781 179.5 201.832031 176.144531 201.832031 C 175.730469 201.828125 175.308594 201.824219 174.894531 201.855469 C 170.917969 202.140625 167.046875 201.464844 163.199219 200.574219 C 159.105469 199.621094 155.539062 197.601562 152.257812 195.042969 C 151.527344 194.472656 150.847656 193.839844 150.140625 193.238281 C 149.898438 193.03125 149.648438 192.835938 149.34375 192.589844 C 149.09375 192.953125 148.90625 193.257812 148.691406 193.542969 C 146.660156 196.234375 144.078125 198.085938 140.710938 198.679688 C 138.390625 199.089844 137.617188 198.851562 135.824219 197.894531 C 135.636719 198.027344 135.414062 198.175781 135.199219 198.335938 C 133.640625 199.507812 131.890625 200.171875 129.945312 200.324219 C 128.355469 200.457031 126.9375 199.910156 125.605469 199.105469 C 125.25 198.890625 124.917969 198.636719 124.566406 198.394531 C 123.703125 198.550781 122.847656 198.757812 121.980469 198.84375 C 121.335938 198.925781 120.695312 198.902344 120.054688 198.777344 C 116.265625 197.933594 113.886719 195.558594 112.832031 191.859375 C 112.5 190.6875 112.648438 189.460938 112.816406 188.261719 C 113.160156 186.066406 114 184.082031 115.335938 182.304688 C 118.082031 178.5 121.867188 176.347656 126.371094 175.382812 C 127.824219 175.082031 129.289062 174.871094 130.769531 174.757812 C 133.136719 174.558594 135.492188 174.671875 137.746094 175.5625 C 137.851562 175.578125 137.960938 175.574219 138.066406 175.550781 C 138.097656 175.4375 138.105469 175.324219 138.09375 175.207031 C 137.261719 172.714844 137.109375 170.117188 136.964844 167.523438 C 136.753906 164.375 136.722656 161.222656 136.867188 158.066406 C 136.9375 156.773438 136.933594 155.472656 136.933594 154.171875 C 136.882812 152.746094 137.152344 151.386719 137.742188 150.089844 C 137.0625 148.839844 136.441406 147.542969 135.683594 146.335938 C 133.777344 143.277344 132.460938 139.980469 131.730469 136.449219 C 131.078125 133.367188 130.433594 130.285156 130.125 127.136719 C 129.953125 125.148438 129.941406 123.15625 130.082031 121.164062 C 130.339844 116.734375 131.457031 112.476562 132.570312 108.214844 C 133.308594 105.421875 134.378906 102.765625 135.789062 100.246094 C 136.394531 99.152344 136.933594 98.023438 137.496094 96.90625 C 138.476562 94.847656 139.667969 92.917969 141.066406 91.121094 C 141.269531 90.867188 141.464844 90.605469 141.6875 90.371094 C 141.980469 90.03125 142.335938 89.777344 142.75 89.605469 C 143.164062 89.433594 143.59375 89.363281 144.042969 89.390625 C 145.027344 89.425781 145.964844 89.644531 146.863281 90.050781 C 148.84375 90.96875 150.761719 91.988281 152.425781 93.433594 C 152.773438 93.734375 153.121094 94.046875 153.5 94.3125 C 155.519531 95.742188 157.238281 97.492188 158.878906 99.328125 C 160.09375 100.671875 161.191406 102.101562 162.175781 103.625 C 162.871094 104.71875 163.597656 105.796875 164.328125 106.867188 C 165.523438 108.582031 166.574219 110.382812 167.476562 112.265625 C 168.089844 113.511719 168.777344 114.714844 169.542969 115.875 C 169.832031 115.761719 170.054688 115.691406 170.257812 115.59375 C 173.921875 113.863281 177.742188 112.632812 181.722656 111.894531 C 183.765625 111.5 185.804688 111.066406 187.855469 110.695312 C 189.824219 110.347656 191.808594 110.226562 193.808594 110.339844 C 195.195312 110.410156 196.585938 110.480469 197.972656 110.523438 C 199.742188 110.566406 201.476562 110.835938 203.175781 111.328125 C 204.453125 111.699219 205.753906 112 207.082031 112.339844 C 207.265625 111.914062 207.433594 111.535156 207.585938 111.15625 C 208.457031 108.949219 209.511719 106.839844 210.757812 104.824219 C 212.140625 102.628906 213.523438 100.429688 214.96875 98.277344 C 215.71875 97.164062 216.601562 96.144531 217.4375 95.089844 C 218.5 93.746094 219.582031 92.414062 220.644531 91.070312 C 221.476562 90.015625 222.285156 88.941406 223.121094 87.890625 C 223.949219 86.878906 224.890625 85.988281 225.945312 85.222656 C 226.28125 84.976562 226.636719 84.761719 227.003906 84.570312 C 227.492188 84.308594 227.980469 84.296875 228.476562 84.539062 C 229.484375 84.9375 230.34375 85.550781 231.058594 86.371094 C 231.382812 86.765625 231.679688 87.175781 231.953125 87.605469 C 234.5625 91.679688 236.769531 95.933594 238.175781 100.59375 C 239.023438 103.351562 239.554688 106.167969 239.769531 109.042969 C 240.144531 114.417969 240.210938 119.796875 240.125 125.179688 C 240.09375 128.957031 239.542969 132.660156 238.472656 136.285156 C 237.550781 139.339844 236.753906 142.4375 235.929688 145.417969 C 237.609375 148.917969 238.65625 152.597656 239.074219 156.457031 C 239.441406 160.097656 239.691406 163.761719 239.488281 167.429688 C 239.316406 169.65625 238.917969 171.84375 238.296875 173.988281 C 238.179688 174.425781 238.0625 174.863281 237.859375 175.613281 Z M 237.859375 175.613281 " fill-opacity="1" fill-rule="nonzero"/></g><path fill="#f2d5b6" d="M 229.074219 89.1875 C 232.03125 93.453125 234.183594 98.09375 235.535156 103.105469 C 235.976562 104.71875 236.273438 106.359375 236.421875 108.023438 C 236.902344 113.761719 237.070312 119.507812 236.917969 125.261719 C 236.855469 128.855469 236.304688 132.367188 235.269531 135.808594 C 234.546875 138.152344 233.9375 140.535156 233.28125 142.898438 C 233.230469 143.078125 233.207031 143.261719 233.152344 143.441406 C 232.65625 144.984375 232.941406 146.46875 233.527344 147.914062 C 234.550781 150.457031 235.289062 153.085938 235.746094 155.789062 C 235.832031 156.246094 235.886719 156.707031 235.921875 157.167969 C 236.039062 159.066406 236.109375 160.96875 236.253906 162.863281 C 236.542969 166.988281 236.011719 171.007812 234.65625 174.914062 C 233.980469 176.933594 233.226562 178.925781 232.398438 180.890625 C 231.027344 184.089844 229.082031 186.886719 226.5625 189.285156 C 226.070312 189.773438 225.542969 190.230469 224.988281 190.648438 C 221.394531 193.296875 217.472656 195.246094 213.003906 195.832031 C 210.230469 196.195312 207.457031 196.082031 204.789062 195.046875 C 203.796875 194.660156 202.792969 194.308594 201.792969 193.945312 C 199.652344 193.160156 197.671875 192.054688 195.703125 190.925781 C 195.183594 190.628906 194.699219 190.277344 194.175781 189.933594 C 194.136719 188.5 194.09375 187.074219 194.050781 185.53125 C 194.285156 185.371094 194.53125 185.230469 194.789062 185.109375 C 196.941406 184.253906 198.519531 182.757812 199.730469 180.804688 C 201.082031 178.628906 201.742188 176.25 202.011719 173.726562 C 202.171875 172.1875 201.585938 171.039062 200.386719 170.113281 C 199.117188 169.164062 197.691406 168.691406 196.109375 168.695312 C 195.085938 168.667969 194.070312 168.730469 193.0625 168.882812 C 190.546875 169.257812 188.035156 169.6875 185.53125 170.140625 C 184.898438 170.269531 184.28125 170.46875 183.6875 170.734375 C 180.710938 171.964844 180.199219 175.175781 181.28125 177.355469 C 181.515625 177.808594 181.78125 178.242188 182.074219 178.660156 C 183.667969 181.054688 185.660156 183.011719 188.257812 184.3125 C 189.042969 184.703125 189.808594 185.128906 190.589844 185.546875 C 190.871094 186.4375 191.09375 188.835938 190.804688 189.496094 C 190.324219 190.585938 190.003906 191.757812 189.085938 192.636719 C 188.015625 193.664062 187.003906 194.742188 185.773438 195.59375 C 183.25 197.378906 180.445312 198.363281 177.363281 198.546875 C 174.679688 198.707031 171.988281 198.90625 169.316406 198.453125 C 167.21875 198.097656 165.117188 197.71875 163.058594 197.1875 C 159.6875 196.3125 156.753906 194.535156 154.066406 192.359375 C 151.257812 190.066406 148.675781 187.542969 146.320312 184.789062 C 144.605469 182.855469 143.328125 180.667969 142.488281 178.226562 C 141.847656 176.292969 141.269531 174.335938 140.722656 172.375 C 140.585938 171.695312 140.503906 171.011719 140.476562 170.316406 C 141.042969 169.960938 141.566406 170.277344 142.070312 170.460938 C 145.453125 171.6875 148.90625 172.503906 152.539062 172.179688 C 156.089844 171.859375 159.648438 171.589844 163.085938 170.535156 C 164.28125 170.167969 165.492188 169.847656 166.710938 169.558594 C 171.441406 168.453125 175.773438 166.546875 179.175781 162.960938 C 182.988281 158.945312 184.796875 153.988281 185.734375 148.632812 C 186.976562 141.550781 186.210938 134.585938 184.523438 127.679688 C 183.65625 124.121094 182.832031 120.550781 181.941406 116.996094 C 181.800781 116.425781 181.519531 115.835938 181.9375 115.257812 C 183.058594 114.988281 184.179688 114.714844 185.304688 114.449219 C 188.894531 113.585938 192.527344 113.34375 196.203125 113.730469 C 196.800781 113.792969 197.410156 113.757812 198.007812 113.804688 C 198.976562 113.886719 199.949219 113.941406 200.902344 114.109375 C 202.320312 114.347656 203.746094 114.484375 205.183594 114.527344 C 205.457031 114.539062 205.730469 114.558594 206.089844 114.578125 C 206.117188 114.816406 206.152344 115.03125 206.167969 115.246094 C 206.257812 116.425781 206.566406 116.796875 207.691406 117.042969 C 207.828125 117.0625 207.96875 117.078125 208.105469 117.085938 C 208.855469 117.261719 209.398438 117.769531 210 118.203125 C 213.511719 120.722656 216.46875 123.832031 219.367188 127.003906 C 219.832031 127.511719 220.304688 128.035156 220.976562 128.296875 C 221.09375 128.351562 221.210938 128.417969 221.316406 128.5 C 221.472656 128.625 221.605469 128.773438 221.710938 128.945312 C 222.414062 130.296875 223.054688 131.679688 224.039062 132.863281 C 224.515625 133.441406 225.085938 133.902344 225.75 134.242188 C 227.128906 134.957031 227.949219 134.773438 228.992188 133.542969 C 230.335938 131.421875 230.476562 128.980469 230.734375 126.609375 C 231.589844 118.761719 231.058594 111.007812 229.148438 103.347656 C 228.589844 100.941406 227.617188 98.710938 226.242188 96.660156 C 226.527344 94.292969 227.453125 92.089844 228 89.785156 C 228.023438 89.667969 228.074219 89.566406 228.140625 89.46875 C 228.210938 89.375 228.300781 89.296875 228.402344 89.242188 C 228.503906 89.183594 228.613281 89.148438 228.734375 89.140625 C 228.851562 89.132812 228.964844 89.144531 229.074219 89.1875 Z M 229.074219 89.1875 " fill-opacity="1" fill-rule="nonzero"/><path fill="#d1a87d" d="M 181.9375 115.257812 C 182.34375 116.964844 182.746094 118.671875 183.160156 120.375 C 183.839844 123.15625 184.5625 125.929688 185.1875 128.71875 C 185.578125 130.472656 185.835938 132.257812 186.140625 134.027344 C 186.324219 135.117188 186.59375 136.210938 186.625 137.304688 C 186.699219 139.898438 186.75 142.5 186.628906 145.089844 C 186.550781 146.691406 186.125 148.273438 185.886719 149.867188 C 185.585938 151.699219 185.082031 153.46875 184.375 155.1875 C 183.558594 157.363281 182.476562 159.402344 181.132812 161.300781 C 179.609375 163.375 177.804688 165.175781 175.550781 166.421875 C 173.734375 167.425781 171.820312 168.265625 169.917969 169.105469 C 169.140625 169.410156 168.34375 169.632812 167.523438 169.777344 C 165.714844 170.160156 163.953125 170.714844 162.175781 171.203125 C 160.835938 171.539062 159.480469 171.800781 158.113281 171.992188 C 156.796875 172.207031 155.46875 172.347656 154.144531 172.507812 C 153.777344 172.550781 153.40625 172.566406 153.035156 172.566406 C 151.925781 172.570312 150.8125 172.5625 149.699219 172.566406 C 148.023438 172.570312 146.394531 172.296875 144.8125 171.738281 C 143.378906 171.238281 141.921875 170.789062 140.476562 170.316406 C 140.421875 170.144531 140.378906 169.964844 140.355469 169.78125 C 140.105469 165.757812 139.835938 161.738281 140.117188 157.695312 C 140.269531 155.527344 140.203125 153.339844 140.238281 151.160156 C 140.203125 150.839844 140.21875 150.519531 140.289062 150.203125 C 140.621094 149.34375 140.371094 148.558594 140.066406 147.777344 C 139.914062 147.386719 139.738281 147.011719 139.542969 146.640625 C 139.28125 146.097656 138.992188 145.570312 138.671875 145.058594 C 136.371094 141.59375 135.1875 137.714844 134.433594 133.675781 C 134.132812 132.082031 133.820312 130.488281 133.585938 128.886719 C 132.867188 124.003906 133.242188 119.175781 134.367188 114.394531 C 135.023438 111.355469 135.847656 108.363281 136.835938 105.421875 C 136.960938 105.070312 137.070312 104.714844 137.214844 104.375 C 138.53125 101.261719 139.824219 98.132812 141.191406 95.042969 C 141.710938 93.863281 142.410156 92.761719 143.054688 91.578125 C 143.972656 91.804688 144.835938 92.164062 145.644531 92.65625 C 147.296875 93.601562 148.855469 94.683594 150.320312 95.902344 C 150.660156 96.214844 151.019531 96.507812 151.390625 96.785156 C 153.535156 98.285156 155.320312 100.167969 157.019531 102.132812 C 157.660156 102.867188 158.253906 103.636719 158.808594 104.4375 C 160.015625 106.195312 161.203125 107.964844 162.34375 109.765625 C 163.082031 110.9375 163.730469 112.171875 164.40625 113.382812 C 164.882812 114.234375 165.339844 115.089844 165.796875 115.949219 C 166.152344 116.546875 166.46875 117.164062 166.738281 117.804688 C 166.859375 118.148438 167.050781 118.449219 167.304688 118.710938 C 167.558594 118.96875 167.855469 119.164062 168.195312 119.296875 C 168.535156 119.425781 168.886719 119.480469 169.25 119.457031 C 169.613281 119.433594 169.953125 119.335938 170.273438 119.164062 C 171.089844 118.730469 171.964844 118.410156 172.804688 118.019531 C 175.648438 116.746094 178.601562 115.820312 181.664062 115.246094 C 181.753906 115.242188 181.847656 115.242188 181.9375 115.257812 Z M 181.9375 115.257812 " fill-opacity="1" fill-rule="nonzero"/><path fill="#cfa77c" d="M 127.660156 196.496094 C 128.023438 196.148438 128.363281 195.78125 128.683594 195.394531 C 129.15625 194.769531 129.59375 194.121094 129.996094 193.449219 C 130.148438 193.15625 130.21875 192.847656 130.203125 192.519531 C 130.199219 192.316406 130.148438 192.128906 130.054688 191.953125 C 129.957031 191.777344 129.828125 191.632812 129.660156 191.519531 C 129.496094 191.40625 129.3125 191.339844 129.113281 191.316406 C 128.914062 191.292969 128.71875 191.316406 128.53125 191.390625 C 128.066406 191.59375 127.640625 191.867188 127.261719 192.203125 C 126.875 192.527344 126.566406 192.949219 126.210938 193.3125 C 125.25 194.359375 124.082031 195.082031 122.714844 195.472656 C 122.207031 195.59375 121.691406 195.636719 121.171875 195.609375 C 120.652344 195.582031 120.148438 195.480469 119.65625 195.308594 C 119.164062 195.132812 118.707031 194.894531 118.28125 194.59375 C 117.859375 194.289062 117.484375 193.933594 117.164062 193.523438 C 115.851562 191.835938 115.675781 189.980469 116.152344 187.996094 C 116.269531 187.453125 116.445312 186.925781 116.675781 186.417969 C 118.128906 183.449219 120.273438 181.175781 123.316406 179.796875 C 125.371094 178.910156 127.511719 178.355469 129.734375 178.121094 C 131.160156 177.917969 132.589844 177.878906 134.023438 178.007812 C 135.316406 178.167969 136.554688 178.519531 137.742188 179.0625 C 138.375 179.339844 138.992188 179.65625 139.699219 179.996094 C 141.113281 183.957031 143.871094 187.078125 146.796875 190.09375 C 146.640625 190.800781 146.324219 191.421875 145.847656 191.96875 C 144.265625 193.894531 142.308594 195.207031 139.800781 195.589844 C 139.160156 195.6875 138.507812 195.78125 137.941406 195.277344 C 138.179688 194.621094 138.421875 193.972656 138.65625 193.320312 C 138.863281 192.769531 138.835938 192.226562 138.570312 191.699219 C 138.5 191.535156 138.402344 191.394531 138.273438 191.273438 C 138.144531 191.152344 137.996094 191.0625 137.828125 191.007812 C 137.660156 190.949219 137.488281 190.929688 137.3125 190.949219 C 137.136719 190.96875 136.972656 191.023438 136.820312 191.113281 C 136.425781 191.355469 136.097656 191.667969 135.835938 192.050781 C 135.605469 192.453125 135.398438 192.863281 135.21875 193.289062 C 134.242188 195.058594 132.902344 196.402344 130.878906 196.914062 C 129.820312 197.183594 128.789062 197.230469 127.660156 196.496094 Z M 127.660156 196.496094 " fill-opacity="1" fill-rule="nonzero"/><path fill="#cfa77c" d="M 238.511719 194.234375 C 238.269531 194.265625 238.023438 194.261719 237.777344 194.226562 C 236.542969 193.832031 235.316406 193.421875 234.09375 192.996094 C 233.324219 192.734375 232.640625 192.328125 232.039062 191.78125 C 231.4375 191.234375 230.964844 190.59375 230.628906 189.855469 C 230.753906 189.632812 230.894531 189.417969 231.042969 189.210938 C 233.097656 186.726562 234.710938 183.980469 235.882812 180.976562 C 236.1875 180.191406 236.605469 179.609375 237.386719 179.277344 C 237.847656 179.058594 238.292969 178.8125 238.722656 178.535156 C 240.269531 177.617188 241.941406 177.128906 243.738281 177.066406 C 245.445312 176.980469 247.164062 177.003906 248.875 177.027344 C 250.191406 177.042969 251.398438 177.570312 252.632812 177.964844 C 255.011719 178.726562 256.5625 180.496094 258.042969 182.359375 C 258.425781 183.351562 258.824219 184.335938 259.191406 185.335938 C 259.253906 185.5625 259.265625 185.792969 259.21875 186.023438 C 259.085938 186.984375 258.925781 187.945312 258.777344 188.90625 C 258.578125 190.210938 257.757812 191.058594 256.6875 191.703125 C 256.230469 192.003906 255.742188 192.078125 255.21875 191.925781 C 253.742188 191.476562 252.304688 190.980469 251.386719 189.597656 C 251.167969 189.296875 250.910156 189.035156 250.609375 188.8125 C 250.230469 188.503906 249.792969 188.378906 249.308594 188.433594 C 248.992188 188.449219 248.726562 188.570312 248.503906 188.796875 C 248.285156 189.023438 248.171875 189.296875 248.167969 189.613281 C 248.144531 190.136719 248.273438 190.621094 248.542969 191.070312 C 248.746094 191.433594 248.976562 191.78125 249.214844 192.171875 C 249.117188 192.378906 248.988281 192.566406 248.835938 192.734375 C 247.128906 194.109375 245.261719 194.617188 243.144531 193.753906 C 242.496094 193.472656 241.941406 193.066406 241.476562 192.535156 C 241.132812 192.160156 240.808594 191.761719 240.433594 191.417969 C 239.773438 190.820312 238.949219 190.726562 238.40625 191.132812 C 237.851562 191.550781 237.664062 192.367188 237.96875 193.160156 C 238.101562 193.5 238.300781 193.816406 238.511719 194.234375 Z M 238.511719 194.234375 " fill-opacity="1" fill-rule="nonzero"/><path fill="#cea77c" d="M 221.132812 128.585938 C 220.679688 128.648438 220.3125 128.5 220.027344 128.140625 C 218.875 126.886719 217.609375 125.738281 216.503906 124.425781 C 215.488281 123.289062 214.394531 122.234375 213.222656 121.261719 C 212.222656 120.378906 211.152344 119.578125 210.105469 118.742188 C 209.675781 118.398438 209.226562 118.078125 208.796875 117.726562 C 208.554688 117.53125 208.335938 117.300781 208.105469 117.085938 C 208.832031 116.683594 209.300781 116.085938 209.515625 115.285156 C 210.90625 110.921875 213.109375 106.96875 215.609375 103.15625 C 217.289062 100.59375 219.015625 98.082031 221.089844 95.816406 C 221.816406 94.972656 222.492188 94.089844 223.117188 93.171875 C 224.398438 91.40625 225.773438 89.71875 227.25 88.113281 C 227.410156 87.917969 227.554688 87.714844 227.691406 87.5 C 228.261719 87.972656 228.726562 88.535156 229.074219 89.1875 C 228.84375 89.230469 228.644531 89.339844 228.480469 89.515625 C 228.320312 89.6875 228.222656 89.894531 228.195312 90.128906 C 227.859375 92.347656 227.035156 94.429688 226.449219 96.574219 C 226.074219 96.984375 225.488281 96.898438 225.054688 97.171875 C 224.34375 97.472656 223.816406 97.972656 223.472656 98.667969 C 221.746094 101.871094 220.488281 105.25 219.699219 108.800781 C 218.914062 112.355469 218.625 115.949219 218.835938 119.585938 C 218.980469 122.121094 219.867188 124.570312 220.890625 126.925781 C 221.117188 127.445312 221.605469 127.953125 221.132812 128.585938 Z M 221.132812 128.585938 " fill-opacity="1" fill-rule="nonzero"/><path fill="#f7b0aa" d="M 188.699219 197.515625 C 189.402344 196.851562 190.070312 196.214844 190.746094 195.589844 C 190.804688 195.535156 190.914062 195.53125 191.027344 195.496094 C 191.25 196.230469 191.449219 196.980469 191.707031 197.703125 C 191.882812 198.179688 192.105469 198.636719 192.371094 199.070312 C 192.480469 199.242188 192.640625 199.320312 192.847656 199.304688 C 193.054688 199.285156 193.195312 199.179688 193.277344 198.988281 C 193.449219 198.5625 193.59375 198.125 193.703125 197.675781 C 193.933594 196.773438 194.007812 195.851562 193.925781 194.921875 C 193.902344 194.570312 193.921875 194.210938 193.921875 193.765625 C 194.65625 194 195.195312 194.4375 195.8125 194.699219 C 196.136719 196.25 196.429688 197.75 196.386719 199.28125 C 196.382812 200.542969 195.957031 201.640625 195.109375 202.570312 C 194.898438 202.824219 194.648438 203.027344 194.359375 203.179688 C 194.070312 203.332031 193.761719 203.425781 193.433594 203.457031 C 193.109375 203.488281 192.789062 203.457031 192.472656 203.359375 C 192.160156 203.265625 191.875 203.113281 191.621094 202.90625 C 191.003906 202.472656 190.519531 201.917969 190.171875 201.246094 C 189.601562 200.035156 189.113281 198.792969 188.699219 197.515625 Z M 188.699219 197.515625 " fill-opacity="1" fill-rule="nonzero"/><path fill="#040302" d="M 221.132812 128.585938 C 221.0625 128.324219 220.972656 128.066406 220.871094 127.8125 C 219.832031 125.628906 219.195312 123.316406 218.648438 120.96875 C 218.355469 119.652344 218.238281 118.320312 218.300781 116.976562 C 218.382812 114.378906 218.710938 111.816406 219.292969 109.28125 C 219.578125 108.070312 219.859375 106.851562 220.160156 105.640625 C 220.839844 102.925781 222.164062 100.480469 223.425781 98.011719 C 223.777344 97.324219 224.371094 97.035156 225.058594 96.855469 C 226.277344 96.914062 226.722656 97.320312 226.820312 98.589844 C 226.929688 100.03125 226.644531 101.457031 226.449219 102.871094 C 226.019531 106.035156 225.667969 109.214844 225.53125 112.398438 C 225.351562 116.511719 226.398438 120.480469 227.5 124.40625 C 228.128906 126.636719 228.710938 128.875 229.1875 131.140625 C 229.433594 132.058594 229.410156 132.972656 229.109375 133.875 C 228.410156 135.078125 227.570312 135.386719 226.246094 134.867188 C 225.269531 134.511719 224.460938 133.925781 223.824219 133.105469 C 223 132 222.175781 130.894531 221.707031 129.574219 C 221.597656 129.324219 221.46875 129.078125 221.324219 128.84375 C 221.324219 128.730469 221.269531 128.660156 221.15625 128.632812 Z M 221.132812 128.585938 " fill-opacity="1" fill-rule="nonzero"/><path fill="#040302" d="M 213.15625 162.527344 C 209.546875 162.421875 205.957031 159.632812 206.03125 155.152344 C 206.042969 154.675781 206.097656 154.207031 206.203125 153.738281 C 206.304688 153.273438 206.449219 152.824219 206.640625 152.386719 C 206.835938 151.953125 207.066406 151.539062 207.339844 151.148438 C 207.613281 150.757812 207.921875 150.398438 208.265625 150.070312 C 208.609375 149.738281 208.980469 149.445312 209.382812 149.191406 C 209.785156 148.9375 210.207031 148.722656 210.652344 148.550781 C 211.09375 148.378906 211.550781 148.25 212.019531 148.171875 C 212.488281 148.089844 212.960938 148.054688 213.4375 148.066406 C 217.054688 148.136719 220.539062 150.976562 220.480469 155.355469 C 220.417969 159.894531 216.761719 162.550781 213.15625 162.527344 Z M 213.15625 162.527344 " fill-opacity="1" fill-rule="nonzero"/><path fill="#fbb4ad" d="M 229.109375 133.875 C 229.070312 132.484375 228.863281 131.113281 228.492188 129.769531 C 227.964844 127.808594 227.40625 125.851562 226.902344 123.882812 C 226.183594 121.058594 225.484375 118.230469 225.21875 115.320312 C 225.105469 114.214844 225.085938 113.105469 225.164062 111.996094 C 225.402344 108.996094 225.714844 106.007812 226.015625 103.015625 C 226.144531 101.773438 226.320312 100.535156 226.472656 99.296875 C 226.652344 97.820312 226.46875 97.5 225.058594 96.855469 C 225.449219 96.402344 225.980469 96.648438 226.449219 96.574219 C 227.984375 98.261719 228.824219 100.28125 229.296875 102.484375 C 229.820312 104.910156 230.386719 107.328125 230.855469 109.765625 C 231.066406 110.84375 231.03125 111.96875 231.195312 113.054688 C 231.734375 116.601562 231.347656 120.164062 231.445312 123.71875 C 231.460938 124.261719 231.242188 124.808594 231.226562 125.351562 C 231.199219 126.324219 231.035156 127.273438 230.929688 128.234375 C 230.769531 129.65625 230.472656 131.050781 230.039062 132.410156 C 229.863281 132.957031 229.742188 133.597656 229.109375 133.875 Z M 229.109375 133.875 " fill-opacity="1" fill-rule="nonzero"/><path fill="#cea77c" d="M 221.15625 128.632812 C 221.214844 128.703125 221.269531 128.773438 221.324219 128.847656 C 221.269531 128.773438 221.214844 128.703125 221.15625 128.632812 Z M 221.15625 128.632812 " fill-opacity="1" fill-rule="nonzero"/><path fill="#040303" d="M 146.410156 103.019531 C 146.449219 102.992188 146.480469 102.960938 146.511719 102.925781 C 147.378906 101.648438 148.171875 101.480469 149.382812 102.328125 C 150.25 102.964844 150.988281 103.726562 151.601562 104.613281 C 153.289062 106.914062 154.589844 109.398438 155.242188 112.203125 C 155.566406 113.601562 155.988281 114.976562 156.375 116.359375 C 156.910156 118.242188 157.230469 120.15625 157.339844 122.109375 C 157.503906 124.535156 157.003906 126.816406 155.839844 128.949219 C 154.355469 131.597656 152.222656 133.625 149.679688 135.238281 C 149.128906 135.609375 148.523438 135.820312 147.863281 135.875 C 147.09375 135.929688 146.386719 135.847656 145.8125 135.273438 C 145.113281 134.933594 145.179688 134.328125 145.296875 133.722656 C 145.398438 133.261719 145.601562 132.847656 145.90625 132.488281 C 148.46875 129.371094 148.917969 125.640625 149.035156 121.804688 C 149.210938 115.964844 148.433594 110.289062 146.304688 104.820312 C 146.074219 104.226562 145.816406 103.585938 146.410156 103.019531 Z M 146.410156 103.019531 " fill-opacity="1" fill-rule="nonzero"/><path fill="#fcb4ad" d="M 146.410156 103.019531 C 146.332031 103.785156 146.585938 104.476562 146.84375 105.175781 C 147.453125 106.824219 148.097656 108.460938 148.429688 110.199219 C 149.25 114.484375 149.792969 118.792969 149.457031 123.171875 C 149.285156 125.253906 148.890625 127.296875 148.28125 129.292969 C 148.058594 130.058594 147.703125 130.757812 147.214844 131.386719 C 146.847656 131.863281 146.492188 132.347656 146.121094 132.820312 C 145.53125 133.578125 145.339844 134.382812 145.8125 135.273438 C 145.652344 135.324219 145.40625 135.460938 145.351562 135.40625 C 144.96875 135.074219 144.640625 134.695312 144.363281 134.273438 C 143.433594 132.65625 142.925781 130.867188 142.496094 129.070312 C 142.140625 127.597656 141.9375 126.085938 141.683594 124.589844 C 141.644531 124.269531 141.632812 123.945312 141.644531 123.621094 C 141.636719 122 141.664062 120.375 141.625 118.753906 C 141.628906 117.320312 141.789062 115.90625 142.101562 114.503906 C 142.355469 113.195312 142.5 111.863281 142.773438 110.554688 C 143.15625 108.703125 143.527344 106.832031 144.453125 105.15625 C 144.910156 104.40625 145.40625 103.691406 145.953125 103.003906 C 146.082031 102.824219 146.261719 102.847656 146.410156 103.019531 Z M 146.410156 103.019531 " fill-opacity="1" fill-rule="nonzero"/><path fill="#030202" d="M 160.484375 156.839844 C 160.480469 156.375 160.523438 155.914062 160.609375 155.457031 C 160.699219 155 160.828125 154.558594 161.003906 154.128906 C 161.175781 153.699219 161.390625 153.289062 161.644531 152.902344 C 161.902344 152.511719 162.191406 152.152344 162.515625 151.824219 C 162.84375 151.492188 163.199219 151.199219 163.582031 150.9375 C 163.964844 150.675781 164.371094 150.457031 164.800781 150.277344 C 165.226562 150.097656 165.667969 149.960938 166.121094 149.867188 C 166.574219 149.773438 167.035156 149.726562 167.5 149.726562 C 170.761719 149.664062 174.648438 152.175781 174.640625 156.863281 C 174.636719 157.328125 174.589844 157.789062 174.496094 158.242188 C 174.402344 158.695312 174.265625 159.136719 174.085938 159.566406 C 173.90625 159.992188 173.6875 160.398438 173.429688 160.785156 C 173.167969 161.167969 172.875 161.523438 172.546875 161.851562 C 172.21875 162.179688 171.859375 162.46875 171.472656 162.726562 C 171.085938 162.984375 170.679688 163.199219 170.25 163.375 C 169.824219 163.554688 169.382812 163.6875 168.925781 163.773438 C 168.472656 163.863281 168.011719 163.910156 167.550781 163.90625 C 167.085938 163.90625 166.628906 163.863281 166.171875 163.769531 C 165.71875 163.679688 165.277344 163.542969 164.851562 163.367188 C 164.421875 163.1875 164.015625 162.972656 163.628906 162.714844 C 163.246094 162.457031 162.886719 162.164062 162.558594 161.835938 C 162.234375 161.507812 161.941406 161.148438 161.683594 160.761719 C 161.425781 160.378906 161.207031 159.972656 161.027344 159.542969 C 160.851562 159.113281 160.714844 158.671875 160.625 158.21875 C 160.535156 157.761719 160.488281 157.304688 160.484375 156.839844 Z M 160.484375 156.839844 " fill-opacity="1" fill-rule="nonzero"/><g fill="#6d5133" fill-opacity="1"><g transform="translate(117.255194, 255.465804)"><g><path d="M 7.5 -12.265625 C 7.8125 -12.265625 8.070312 -12.238281 8.28125 -12.1875 C 8.5 -12.144531 8.675781 -12.085938 8.8125 -12.015625 C 8.957031 -11.953125 9.066406 -11.882812 9.140625 -11.8125 C 9.222656 -11.738281 9.273438 -11.679688 9.296875 -11.640625 C 9.367188 -11.546875 9.40625 -11.441406 9.40625 -11.328125 C 9.40625 -11.097656 9.320312 -10.929688 9.15625 -10.828125 C 9.070312 -10.753906 8.957031 -10.71875 8.8125 -10.71875 C 8.632812 -10.71875 8.484375 -10.785156 8.359375 -10.921875 C 8.328125 -10.929688 8.25 -10.957031 8.125 -11 C 8.007812 -11.039062 7.800781 -11.0625 7.5 -11.0625 C 7.320312 -11.0625 7.007812 -10.953125 6.5625 -10.734375 C 6.125 -10.523438 5.675781 -10.175781 5.21875 -9.6875 C 4.757812 -9.195312 4.347656 -8.5625 3.984375 -7.78125 C 3.617188 -7.007812 3.4375 -6.054688 3.4375 -4.921875 C 3.476562 -4.734375 3.519531 -4.539062 3.5625 -4.34375 C 3.601562 -4.15625 3.65625 -3.960938 3.71875 -3.765625 C 3.875 -3.117188 4.03125 -2.441406 4.1875 -1.734375 C 4.34375 -1.035156 4.421875 -0.320312 4.421875 0.40625 C 4.421875 0.582031 4.359375 0.726562 4.234375 0.84375 C 4.117188 0.957031 3.984375 1.015625 3.828125 1.015625 C 3.648438 1.015625 3.503906 0.957031 3.390625 0.84375 C 3.273438 0.726562 3.21875 0.582031 3.21875 0.40625 C 3.21875 -0.25 3.144531 -0.90625 3 -1.5625 C 2.863281 -2.226562 2.71875 -2.859375 2.5625 -3.453125 C 2.414062 -3.984375 2.285156 -4.492188 2.171875 -4.984375 C 2.066406 -5.484375 2.015625 -5.941406 2.015625 -6.359375 C 2.015625 -6.773438 1.984375 -7.296875 1.921875 -7.921875 C 1.867188 -8.554688 1.800781 -9.171875 1.71875 -9.765625 C 1.644531 -10.359375 1.578125 -10.875 1.515625 -11.3125 C 1.460938 -11.75 1.4375 -11.984375 1.4375 -12.015625 C 1.4375 -12.148438 1.484375 -12.273438 1.578125 -12.390625 C 1.679688 -12.503906 1.835938 -12.578125 2.046875 -12.609375 C 2.179688 -12.609375 2.300781 -12.5625 2.40625 -12.46875 C 2.519531 -12.375 2.59375 -12.25 2.625 -12.09375 C 2.625 -12.0625 2.640625 -11.941406 2.671875 -11.734375 C 2.710938 -11.535156 2.753906 -11.273438 2.796875 -10.953125 C 2.835938 -10.640625 2.882812 -10.28125 2.9375 -9.875 C 2.988281 -9.476562 3.035156 -9.082031 3.078125 -8.6875 C 3.359375 -9.269531 3.695312 -9.785156 4.09375 -10.234375 C 4.488281 -10.691406 4.894531 -11.066406 5.3125 -11.359375 C 5.726562 -11.660156 6.128906 -11.882812 6.515625 -12.03125 C 6.898438 -12.1875 7.226562 -12.265625 7.5 -12.265625 Z M 7.5 -12.265625 "/></g></g></g><g fill="#6d5133" fill-opacity="1"><g transform="translate(126.771082, 255.465804)"><g><path d="M 5.96875 -10.828125 C 5.84375 -10.828125 5.585938 -10.757812 5.203125 -10.625 C 4.828125 -10.488281 4.4375 -10.242188 4.03125 -9.890625 C 3.625 -9.546875 3.242188 -9.0625 2.890625 -8.4375 C 2.535156 -7.8125 2.316406 -7.007812 2.234375 -6.03125 C 2.472656 -6.09375 2.75 -6.160156 3.0625 -6.234375 C 3.375 -6.304688 3.679688 -6.375 3.984375 -6.4375 C 4.296875 -6.5 4.585938 -6.550781 4.859375 -6.59375 C 5.140625 -6.632812 5.367188 -6.65625 5.546875 -6.65625 C 5.742188 -6.65625 5.992188 -6.703125 6.296875 -6.796875 C 6.609375 -6.890625 6.914062 -6.988281 7.21875 -7.09375 C 7.457031 -7.175781 7.6875 -7.25 7.90625 -7.3125 C 8.125 -7.375 8.332031 -7.4375 8.53125 -7.5 C 8.46875 -8.070312 8.34375 -8.566406 8.15625 -8.984375 C 7.976562 -9.398438 7.765625 -9.742188 7.515625 -10.015625 C 7.273438 -10.285156 7.019531 -10.488281 6.75 -10.625 C 6.476562 -10.757812 6.21875 -10.828125 5.96875 -10.828125 Z M 10.03125 -0.984375 C 10.1875 -0.984375 10.316406 -0.929688 10.421875 -0.828125 C 10.535156 -0.734375 10.609375 -0.585938 10.640625 -0.390625 C 10.640625 -0.234375 10.59375 -0.101562 10.5 0 C 10.40625 0.113281 10.28125 0.1875 10.125 0.21875 C 10.09375 0.21875 9.960938 0.234375 9.734375 0.265625 C 9.503906 0.304688 9.226562 0.347656 8.90625 0.390625 C 8.59375 0.429688 8.265625 0.460938 7.921875 0.484375 C 7.578125 0.515625 7.285156 0.53125 7.046875 0.53125 C 5.140625 0.53125 3.675781 0.0234375 2.65625 -0.984375 C 1.644531 -1.992188 1.085938 -3.414062 0.984375 -5.25 C 0.960938 -6.175781 1.046875 -6.988281 1.234375 -7.6875 C 1.429688 -8.394531 1.691406 -9 2.015625 -9.5 C 2.335938 -10 2.695312 -10.410156 3.09375 -10.734375 C 3.5 -11.066406 3.890625 -11.328125 4.265625 -11.515625 C 4.640625 -11.703125 4.984375 -11.832031 5.296875 -11.90625 C 5.609375 -11.988281 5.832031 -12.03125 5.96875 -12.03125 C 6.34375 -12.03125 6.738281 -11.9375 7.15625 -11.75 C 7.582031 -11.5625 7.976562 -11.273438 8.34375 -10.890625 C 8.707031 -10.515625 9.019531 -10.035156 9.28125 -9.453125 C 9.539062 -8.867188 9.695312 -8.175781 9.75 -7.375 C 9.84375 -7.257812 9.890625 -7.128906 9.890625 -6.984375 C 9.890625 -6.835938 9.84375 -6.71875 9.75 -6.625 C 9.675781 -6.332031 9.484375 -6.1875 9.171875 -6.1875 C 9.023438 -6.1875 8.90625 -6.226562 8.8125 -6.3125 C 8.425781 -6.226562 8.023438 -6.109375 7.609375 -5.953125 C 7.234375 -5.828125 6.863281 -5.710938 6.5 -5.609375 C 6.144531 -5.503906 5.828125 -5.453125 5.546875 -5.453125 C 5.390625 -5.453125 5.175781 -5.429688 4.90625 -5.390625 C 4.644531 -5.347656 4.351562 -5.289062 4.03125 -5.21875 C 3.71875 -5.144531 3.398438 -5.066406 3.078125 -4.984375 C 2.753906 -4.910156 2.46875 -4.835938 2.21875 -4.765625 C 2.269531 -3.878906 2.472656 -3.164062 2.828125 -2.625 C 3.179688 -2.09375 3.597656 -1.679688 4.078125 -1.390625 C 4.554688 -1.097656 5.0625 -0.90625 5.59375 -0.8125 C 6.132812 -0.71875 6.617188 -0.671875 7.046875 -0.671875 C 7.273438 -0.671875 7.550781 -0.679688 7.875 -0.703125 C 8.207031 -0.734375 8.523438 -0.769531 8.828125 -0.8125 C 9.128906 -0.851562 9.394531 -0.890625 9.625 -0.921875 L 9.953125 -0.96875 Z M 10.03125 -0.984375 "/></g></g></g><g fill="#6d5133" fill-opacity="1"><g transform="translate(137.618764, 255.465804)"><g><path d="M 5.28125 -0.8125 C 5.582031 -0.8125 5.910156 -0.953125 6.265625 -1.234375 C 6.628906 -1.515625 6.976562 -1.890625 7.3125 -2.359375 C 7.65625 -2.835938 7.960938 -3.394531 8.234375 -4.03125 C 8.503906 -4.664062 8.703125 -5.34375 8.828125 -6.0625 C 8.734375 -6.75 8.65625 -7.472656 8.59375 -8.234375 C 8.539062 -8.992188 8.503906 -9.800781 8.484375 -10.65625 C 8.328125 -10.78125 8.25 -10.9375 8.25 -11.125 C 8.144531 -11.164062 8.039062 -11.203125 7.9375 -11.234375 C 7.832031 -11.265625 7.710938 -11.28125 7.578125 -11.28125 C 7.398438 -11.28125 7.140625 -11.238281 6.796875 -11.15625 C 6.453125 -11.082031 6.078125 -10.953125 5.671875 -10.765625 C 5.273438 -10.585938 4.867188 -10.351562 4.453125 -10.0625 C 4.046875 -9.78125 3.675781 -9.429688 3.34375 -9.015625 C 3.007812 -8.609375 2.734375 -8.128906 2.515625 -7.578125 C 2.296875 -7.035156 2.1875 -6.421875 2.1875 -5.734375 C 2.1875 -4.648438 2.273438 -3.785156 2.453125 -3.140625 C 2.640625 -2.492188 2.878906 -2 3.171875 -1.65625 C 3.460938 -1.3125 3.789062 -1.082031 4.15625 -0.96875 C 4.519531 -0.863281 4.894531 -0.8125 5.28125 -0.8125 Z M 10.0625 -6.0625 C 10.1875 -5.175781 10.332031 -4.378906 10.5 -3.671875 C 10.675781 -2.972656 10.835938 -2.378906 10.984375 -1.890625 C 11.140625 -1.398438 11.269531 -1.019531 11.375 -0.75 C 11.476562 -0.488281 11.53125 -0.351562 11.53125 -0.34375 C 11.550781 -0.300781 11.5625 -0.257812 11.5625 -0.21875 C 11.570312 -0.1875 11.578125 -0.148438 11.578125 -0.109375 C 11.578125 0.148438 11.460938 0.335938 11.234375 0.453125 C 11.117188 0.484375 11.035156 0.5 10.984375 0.5 C 10.710938 0.5 10.53125 0.382812 10.4375 0.15625 C 10.414062 0.09375 10.285156 -0.25 10.046875 -0.875 C 9.804688 -1.5 9.554688 -2.367188 9.296875 -3.484375 C 9.066406 -2.921875 8.796875 -2.398438 8.484375 -1.921875 C 8.179688 -1.453125 7.851562 -1.046875 7.5 -0.703125 C 7.15625 -0.359375 6.789062 -0.09375 6.40625 0.09375 C 6.03125 0.289062 5.65625 0.390625 5.28125 0.390625 C 3.820312 0.390625 2.738281 -0.109375 2.03125 -1.109375 C 1.332031 -2.117188 0.984375 -3.660156 0.984375 -5.734375 C 0.984375 -6.597656 1.113281 -7.363281 1.375 -8.03125 C 1.632812 -8.695312 1.96875 -9.28125 2.375 -9.78125 C 2.78125 -10.28125 3.238281 -10.703125 3.75 -11.046875 C 4.257812 -11.390625 4.753906 -11.664062 5.234375 -11.875 C 5.722656 -12.09375 6.175781 -12.25 6.59375 -12.34375 C 7.007812 -12.4375 7.335938 -12.484375 7.578125 -12.484375 C 8.015625 -12.484375 8.390625 -12.398438 8.703125 -12.234375 C 9.015625 -12.066406 9.273438 -11.878906 9.484375 -11.671875 C 9.691406 -11.460938 9.84375 -11.269531 9.9375 -11.09375 C 10.039062 -10.914062 10.09375 -10.820312 10.09375 -10.8125 C 10.132812 -10.738281 10.15625 -10.660156 10.15625 -10.578125 C 10.15625 -10.429688 10.09375 -10.28125 9.96875 -10.125 C 10.09375 -9.445312 10.15625 -8.554688 10.15625 -7.453125 C 10.15625 -7.222656 10.144531 -6.992188 10.125 -6.765625 C 10.101562 -6.535156 10.082031 -6.300781 10.0625 -6.0625 Z M 10.0625 -6.0625 "/></g></g></g><g fill="#6d5133" fill-opacity="1"><g transform="translate(149.647877, 255.465804)"><g><path d="M 3.140625 -9.625 C 3.140625 -9.164062 3.164062 -8.613281 3.21875 -7.96875 C 3.28125 -7.320312 3.347656 -6.648438 3.421875 -5.953125 C 3.503906 -5.253906 3.59375 -4.554688 3.6875 -3.859375 C 3.78125 -3.160156 3.867188 -2.53125 3.953125 -1.96875 C 4.035156 -1.40625 4.101562 -0.941406 4.15625 -0.578125 C 4.21875 -0.222656 4.25 -0.03125 4.25 0 C 4.25 0.332031 4.050781 0.535156 3.65625 0.609375 C 3.5 0.609375 3.363281 0.5625 3.25 0.46875 C 3.144531 0.375 3.078125 0.25 3.046875 0.09375 C 3.035156 0.0390625 3 -0.164062 2.9375 -0.53125 C 2.882812 -0.90625 2.816406 -1.367188 2.734375 -1.921875 C 2.660156 -2.484375 2.578125 -3.113281 2.484375 -3.8125 C 2.390625 -4.507812 2.296875 -5.210938 2.203125 -5.921875 C 2.117188 -6.628906 2.050781 -7.304688 2 -7.953125 C 1.957031 -8.597656 1.9375 -9.15625 1.9375 -9.625 C 1.9375 -10.3125 1.914062 -11.039062 1.875 -11.8125 C 1.832031 -12.59375 1.785156 -13.3125 1.734375 -13.96875 C 1.691406 -14.632812 1.648438 -15.191406 1.609375 -15.640625 C 1.566406 -16.085938 1.546875 -16.320312 1.546875 -16.34375 C 1.546875 -16.507812 1.59375 -16.644531 1.6875 -16.75 C 1.789062 -16.851562 1.945312 -16.921875 2.15625 -16.953125 C 2.3125 -16.953125 2.441406 -16.894531 2.546875 -16.78125 C 2.648438 -16.675781 2.71875 -16.546875 2.75 -16.390625 C 2.75 -16.347656 2.769531 -16.101562 2.8125 -15.65625 C 2.851562 -15.21875 2.894531 -14.664062 2.9375 -14 C 2.988281 -13.332031 3.035156 -12.609375 3.078125 -11.828125 C 3.117188 -11.054688 3.140625 -10.320312 3.140625 -9.625 Z M 3.140625 -9.625 "/></g></g></g><g fill="#6d5133" fill-opacity="1"><g transform="translate(154.996536, 255.465804)"><g/></g></g><g fill="#6d5133" fill-opacity="1"><g transform="translate(162.299926, 255.465804)"><g><path d="M 3.140625 -9.625 C 3.140625 -9.164062 3.164062 -8.613281 3.21875 -7.96875 C 3.28125 -7.320312 3.347656 -6.648438 3.421875 -5.953125 C 3.503906 -5.253906 3.59375 -4.554688 3.6875 -3.859375 C 3.78125 -3.160156 3.867188 -2.53125 3.953125 -1.96875 C 4.035156 -1.40625 4.101562 -0.941406 4.15625 -0.578125 C 4.21875 -0.222656 4.25 -0.03125 4.25 0 C 4.25 0.332031 4.050781 0.535156 3.65625 0.609375 C 3.5 0.609375 3.363281 0.5625 3.25 0.46875 C 3.144531 0.375 3.078125 0.25 3.046875 0.09375 C 3.035156 0.0390625 3 -0.164062 2.9375 -0.53125 C 2.882812 -0.90625 2.816406 -1.367188 2.734375 -1.921875 C 2.660156 -2.484375 2.578125 -3.113281 2.484375 -3.8125 C 2.390625 -4.507812 2.296875 -5.210938 2.203125 -5.921875 C 2.117188 -6.628906 2.050781 -7.304688 2 -7.953125 C 1.957031 -8.597656 1.9375 -9.15625 1.9375 -9.625 C 1.9375 -10.3125 1.914062 -11.039062 1.875 -11.8125 C 1.832031 -12.59375 1.785156 -13.3125 1.734375 -13.96875 C 1.691406 -14.632812 1.648438 -15.191406 1.609375 -15.640625 C 1.566406 -16.085938 1.546875 -16.320312 1.546875 -16.34375 C 1.546875 -16.507812 1.59375 -16.644531 1.6875 -16.75 C 1.789062 -16.851562 1.945312 -16.921875 2.15625 -16.953125 C 2.3125 -16.953125 2.441406 -16.894531 2.546875 -16.78125 C 2.648438 -16.675781 2.71875 -16.546875 2.75 -16.390625 C 2.75 -16.347656 2.769531 -16.101562 2.8125 -15.65625 C 2.851562 -15.21875 2.894531 -14.664062 2.9375 -14 C 2.988281 -13.332031 3.035156 -12.609375 3.078125 -11.828125 C 3.117188 -11.054688 3.140625 -10.320312 3.140625 -9.625 Z M 3.140625 -9.625 "/></g></g></g><g fill="#6d5133" fill-opacity="1"><g transform="translate(167.648586, 255.465804)"><g><path d="M 1.84375 -12.84375 C 1.601562 -12.84375 1.398438 -12.925781 1.234375 -13.09375 C 1.066406 -13.257812 0.984375 -13.460938 0.984375 -13.703125 C 0.984375 -13.953125 1.066406 -14.15625 1.234375 -14.3125 C 1.398438 -14.46875 1.601562 -14.546875 1.84375 -14.546875 C 2.070312 -14.546875 2.269531 -14.46875 2.4375 -14.3125 C 2.601562 -14.15625 2.6875 -13.953125 2.6875 -13.703125 C 2.6875 -13.460938 2.601562 -13.257812 2.4375 -13.09375 C 2.269531 -12.925781 2.070312 -12.84375 1.84375 -12.84375 Z M 2.125 -11.953125 C 2.28125 -11.953125 2.410156 -11.90625 2.515625 -11.8125 C 2.628906 -11.71875 2.703125 -11.597656 2.734375 -11.453125 C 2.734375 -11.410156 2.765625 -11.1875 2.828125 -10.78125 C 2.890625 -10.382812 2.960938 -9.898438 3.046875 -9.328125 C 3.140625 -8.753906 3.222656 -8.140625 3.296875 -7.484375 C 3.378906 -6.835938 3.429688 -6.253906 3.453125 -5.734375 C 3.484375 -5.234375 3.535156 -4.644531 3.609375 -3.96875 C 3.679688 -3.300781 3.757812 -2.660156 3.84375 -2.046875 C 3.925781 -1.441406 4 -0.921875 4.0625 -0.484375 C 4.132812 -0.046875 4.171875 0.1875 4.171875 0.21875 C 4.171875 0.375 4.117188 0.503906 4.015625 0.609375 C 3.921875 0.722656 3.769531 0.789062 3.5625 0.8125 C 3.40625 0.8125 3.273438 0.765625 3.171875 0.671875 C 3.066406 0.578125 3 0.453125 2.96875 0.296875 C 2.96875 0.253906 2.929688 0.0195312 2.859375 -0.40625 C 2.796875 -0.832031 2.722656 -1.347656 2.640625 -1.953125 C 2.554688 -2.566406 2.476562 -3.210938 2.40625 -3.890625 C 2.332031 -4.566406 2.28125 -5.160156 2.25 -5.671875 C 2.226562 -6.171875 2.175781 -6.742188 2.09375 -7.390625 C 2.019531 -8.035156 1.941406 -8.644531 1.859375 -9.21875 C 1.773438 -9.789062 1.703125 -10.28125 1.640625 -10.6875 C 1.578125 -11.09375 1.546875 -11.3125 1.546875 -11.34375 C 1.546875 -11.488281 1.585938 -11.617188 1.671875 -11.734375 C 1.765625 -11.847656 1.890625 -11.921875 2.046875 -11.953125 Z M 2.125 -11.953125 "/></g></g></g><g fill="#6d5133" fill-opacity="1"><g transform="translate(172.911322, 255.465804)"><g><path d="M 9.859375 -12.046875 C 9.734375 -12.046875 9.613281 -12.085938 9.5 -12.171875 C 9.382812 -12.265625 9.3125 -12.382812 9.28125 -12.53125 C 9.28125 -12.550781 9.226562 -12.707031 9.125 -13 C 9.03125 -13.300781 8.867188 -13.617188 8.640625 -13.953125 C 8.421875 -14.285156 8.117188 -14.585938 7.734375 -14.859375 C 7.347656 -15.140625 6.867188 -15.28125 6.296875 -15.28125 C 5.796875 -15.28125 5.335938 -15.070312 4.921875 -14.65625 C 4.722656 -14.4375 4.5625 -14.191406 4.4375 -13.921875 C 4.3125 -13.648438 4.25 -13.367188 4.25 -13.078125 L 4.34375 -9.8125 C 4.757812 -9.84375 5.191406 -9.875 5.640625 -9.90625 C 6.085938 -9.9375 6.550781 -9.960938 7.03125 -9.984375 C 7.1875 -9.984375 7.320312 -9.925781 7.4375 -9.8125 C 7.550781 -9.695312 7.613281 -9.554688 7.625 -9.390625 C 7.625 -9.234375 7.566406 -9.09375 7.453125 -8.96875 C 7.335938 -8.84375 7.203125 -8.78125 7.046875 -8.78125 C 6.585938 -8.757812 6.132812 -8.734375 5.6875 -8.703125 C 5.25 -8.671875 4.820312 -8.640625 4.40625 -8.609375 C 4.457031 -7.828125 4.550781 -6.96875 4.6875 -6.03125 C 4.832031 -5.09375 4.96875 -4.207031 5.09375 -3.375 C 5.21875 -2.539062 5.332031 -1.84375 5.4375 -1.28125 C 5.539062 -0.71875 5.59375 -0.410156 5.59375 -0.359375 C 5.59375 -0.0351562 5.390625 0.160156 4.984375 0.234375 C 4.648438 0.234375 4.453125 0.0664062 4.390625 -0.265625 C 4.390625 -0.304688 4.363281 -0.460938 4.3125 -0.734375 C 4.257812 -1.003906 4.191406 -1.359375 4.109375 -1.796875 C 4.035156 -2.234375 3.953125 -2.726562 3.859375 -3.28125 C 3.773438 -3.832031 3.691406 -4.40625 3.609375 -5 C 3.523438 -5.601562 3.445312 -6.207031 3.375 -6.8125 C 3.300781 -7.414062 3.242188 -7.984375 3.203125 -8.515625 C 2.585938 -8.453125 2.085938 -8.398438 1.703125 -8.359375 C 1.316406 -8.316406 1.09375 -8.285156 1.03125 -8.265625 C 0.882812 -8.265625 0.753906 -8.316406 0.640625 -8.421875 C 0.523438 -8.523438 0.457031 -8.675781 0.4375 -8.875 C 0.4375 -9.03125 0.484375 -9.160156 0.578125 -9.265625 C 0.679688 -9.378906 0.8125 -9.445312 0.96875 -9.46875 C 0.976562 -9.46875 1.179688 -9.488281 1.578125 -9.53125 C 1.972656 -9.582031 2.492188 -9.644531 3.140625 -9.71875 L 3.140625 -9.984375 L 3.046875 -13.125 C 3.046875 -13.539062 3.132812 -13.957031 3.3125 -14.375 C 3.5 -14.789062 3.75 -15.160156 4.0625 -15.484375 C 4.375 -15.804688 4.71875 -16.050781 5.09375 -16.21875 C 5.476562 -16.394531 5.878906 -16.484375 6.296875 -16.484375 C 6.953125 -16.484375 7.523438 -16.347656 8.015625 -16.078125 C 8.503906 -15.816406 8.914062 -15.492188 9.25 -15.109375 C 9.582031 -14.722656 9.847656 -14.304688 10.046875 -13.859375 C 10.253906 -13.410156 10.394531 -13.007812 10.46875 -12.65625 C 10.46875 -12.34375 10.316406 -12.148438 10.015625 -12.078125 Z M 9.859375 -12.046875 "/></g></g></g><g fill="#6d5133" fill-opacity="1"><g transform="translate(181.718352, 255.465804)"><g><path d="M 5.96875 -10.828125 C 5.84375 -10.828125 5.585938 -10.757812 5.203125 -10.625 C 4.828125 -10.488281 4.4375 -10.242188 4.03125 -9.890625 C 3.625 -9.546875 3.242188 -9.0625 2.890625 -8.4375 C 2.535156 -7.8125 2.316406 -7.007812 2.234375 -6.03125 C 2.472656 -6.09375 2.75 -6.160156 3.0625 -6.234375 C 3.375 -6.304688 3.679688 -6.375 3.984375 -6.4375 C 4.296875 -6.5 4.585938 -6.550781 4.859375 -6.59375 C 5.140625 -6.632812 5.367188 -6.65625 5.546875 -6.65625 C 5.742188 -6.65625 5.992188 -6.703125 6.296875 -6.796875 C 6.609375 -6.890625 6.914062 -6.988281 7.21875 -7.09375 C 7.457031 -7.175781 7.6875 -7.25 7.90625 -7.3125 C 8.125 -7.375 8.332031 -7.4375 8.53125 -7.5 C 8.46875 -8.070312 8.34375 -8.566406 8.15625 -8.984375 C 7.976562 -9.398438 7.765625 -9.742188 7.515625 -10.015625 C 7.273438 -10.285156 7.019531 -10.488281 6.75 -10.625 C 6.476562 -10.757812 6.21875 -10.828125 5.96875 -10.828125 Z M 10.03125 -0.984375 C 10.1875 -0.984375 10.316406 -0.929688 10.421875 -0.828125 C 10.535156 -0.734375 10.609375 -0.585938 10.640625 -0.390625 C 10.640625 -0.234375 10.59375 -0.101562 10.5 0 C 10.40625 0.113281 10.28125 0.1875 10.125 0.21875 C 10.09375 0.21875 9.960938 0.234375 9.734375 0.265625 C 9.503906 0.304688 9.226562 0.347656 8.90625 0.390625 C 8.59375 0.429688 8.265625 0.460938 7.921875 0.484375 C 7.578125 0.515625 7.285156 0.53125 7.046875 0.53125 C 5.140625 0.53125 3.675781 0.0234375 2.65625 -0.984375 C 1.644531 -1.992188 1.085938 -3.414062 0.984375 -5.25 C 0.960938 -6.175781 1.046875 -6.988281 1.234375 -7.6875 C 1.429688 -8.394531 1.691406 -9 2.015625 -9.5 C 2.335938 -10 2.695312 -10.410156 3.09375 -10.734375 C 3.5 -11.066406 3.890625 -11.328125 4.265625 -11.515625 C 4.640625 -11.703125 4.984375 -11.832031 5.296875 -11.90625 C 5.609375 -11.988281 5.832031 -12.03125 5.96875 -12.03125 C 6.34375 -12.03125 6.738281 -11.9375 7.15625 -11.75 C 7.582031 -11.5625 7.976562 -11.273438 8.34375 -10.890625 C 8.707031 -10.515625 9.019531 -10.035156 9.28125 -9.453125 C 9.539062 -8.867188 9.695312 -8.175781 9.75 -7.375 C 9.84375 -7.257812 9.890625 -7.128906 9.890625 -6.984375 C 9.890625 -6.835938 9.84375 -6.71875 9.75 -6.625 C 9.675781 -6.332031 9.484375 -6.1875 9.171875 -6.1875 C 9.023438 -6.1875 8.90625 -6.226562 8.8125 -6.3125 C 8.425781 -6.226562 8.023438 -6.109375 7.609375 -5.953125 C 7.234375 -5.828125 6.863281 -5.710938 6.5 -5.609375 C 6.144531 -5.503906 5.828125 -5.453125 5.546875 -5.453125 C 5.390625 -5.453125 5.175781 -5.429688 4.90625 -5.390625 C 4.644531 -5.347656 4.351562 -5.289062 4.03125 -5.21875 C 3.71875 -5.144531 3.398438 -5.066406 3.078125 -4.984375 C 2.753906 -4.910156 2.46875 -4.835938 2.21875 -4.765625 C 2.269531 -3.878906 2.472656 -3.164062 2.828125 -2.625 C 3.179688 -2.09375 3.597656 -1.679688 4.078125 -1.390625 C 4.554688 -1.097656 5.0625 -0.90625 5.59375 -0.8125 C 6.132812 -0.71875 6.617188 -0.671875 7.046875 -0.671875 C 7.273438 -0.671875 7.550781 -0.679688 7.875 -0.703125 C 8.207031 -0.734375 8.523438 -0.769531 8.828125 -0.8125 C 9.128906 -0.851562 9.394531 -0.890625 9.625 -0.921875 L 9.953125 -0.96875 Z M 10.03125 -0.984375 "/></g></g></g><g fill="#6d5133" fill-opacity="1"><g transform="translate(192.566034, 255.465804)"><g/></g></g><g fill="#6d5133" fill-opacity="1"><g transform="translate(199.869424, 255.465804)"><g><path d="M 7.03125 -1.203125 C 7.125 -1.265625 7.238281 -1.296875 7.375 -1.296875 C 7.582031 -1.296875 7.742188 -1.207031 7.859375 -1.03125 C 7.929688 -0.914062 7.96875 -0.800781 7.96875 -0.6875 C 7.96875 -0.5 7.875 -0.332031 7.6875 -0.1875 L 7.546875 -0.09375 C 7.429688 -0.0195312 7.28125 0.0507812 7.09375 0.125 C 6.90625 0.195312 6.691406 0.265625 6.453125 0.328125 C 6.222656 0.398438 5.96875 0.4375 5.6875 0.4375 C 5.34375 0.4375 4.925781 0.332031 4.4375 0.125 C 3.957031 -0.0820312 3.484375 -0.429688 3.015625 -0.921875 C 2.554688 -1.421875 2.144531 -2.078125 1.78125 -2.890625 C 1.425781 -3.703125 1.207031 -4.703125 1.125 -5.890625 C 1.101562 -5.972656 1.09375 -6.050781 1.09375 -6.125 C 1.09375 -6.207031 1.09375 -6.289062 1.09375 -6.375 C 1.09375 -7.3125 1.257812 -8.148438 1.59375 -8.890625 C 1.9375 -9.640625 2.34375 -10.273438 2.8125 -10.796875 C 3.289062 -11.316406 3.78125 -11.722656 4.28125 -12.015625 C 4.789062 -12.316406 5.226562 -12.476562 5.59375 -12.5 C 5.65625 -12.519531 5.726562 -12.53125 5.8125 -12.53125 C 5.894531 -12.53125 5.96875 -12.53125 6.03125 -12.53125 C 6.445312 -12.53125 6.804688 -12.488281 7.109375 -12.40625 C 7.421875 -12.332031 7.632812 -12.265625 7.75 -12.203125 C 7.914062 -12.171875 8.082031 -12.054688 8.25 -11.859375 C 8.425781 -11.671875 8.515625 -11.304688 8.515625 -10.765625 C 8.515625 -10.585938 8.453125 -10.441406 8.328125 -10.328125 C 8.203125 -10.210938 8.0625 -10.15625 7.90625 -10.15625 C 7.738281 -10.15625 7.597656 -10.210938 7.484375 -10.328125 C 7.367188 -10.441406 7.3125 -10.585938 7.3125 -10.765625 C 7.3125 -10.878906 7.296875 -10.992188 7.265625 -11.109375 C 7.179688 -11.140625 7.03125 -11.179688 6.8125 -11.234375 C 6.59375 -11.296875 6.332031 -11.328125 6.03125 -11.328125 C 5.976562 -11.328125 5.925781 -11.328125 5.875 -11.328125 C 5.820312 -11.328125 5.757812 -11.316406 5.6875 -11.296875 C 5.457031 -11.273438 5.15625 -11.148438 4.78125 -10.921875 C 4.40625 -10.691406 4.03125 -10.363281 3.65625 -9.9375 C 3.289062 -9.507812 2.972656 -8.992188 2.703125 -8.390625 C 2.429688 -7.796875 2.296875 -7.117188 2.296875 -6.359375 C 2.296875 -6.285156 2.296875 -6.21875 2.296875 -6.15625 C 2.296875 -6.101562 2.304688 -6.039062 2.328125 -5.96875 C 2.378906 -5 2.539062 -4.179688 2.8125 -3.515625 C 3.082031 -2.859375 3.394531 -2.328125 3.75 -1.921875 C 4.101562 -1.515625 4.453125 -1.222656 4.796875 -1.046875 C 5.148438 -0.867188 5.445312 -0.78125 5.6875 -0.78125 C 5.863281 -0.78125 6.03125 -0.800781 6.1875 -0.84375 C 6.34375 -0.882812 6.484375 -0.925781 6.609375 -0.96875 C 6.742188 -1.019531 6.847656 -1.078125 6.921875 -1.140625 Z M 7.03125 -1.203125 "/></g></g></g><g fill="#6d5133" fill-opacity="1"><g transform="translate(208.912739, 255.465804)"><g><path d="M 11.21875 -5.28125 C 11.53125 -5.207031 11.6875 -4.972656 11.6875 -4.578125 C 11.613281 -4.285156 11.515625 -3.957031 11.390625 -3.59375 C 11.273438 -3.226562 11.117188 -2.863281 10.921875 -2.5 C 11.003906 -1.8125 11.082031 -1.210938 11.15625 -0.703125 C 11.226562 -0.203125 11.269531 0.0703125 11.28125 0.125 C 11.28125 0.28125 11.226562 0.410156 11.125 0.515625 C 11.03125 0.628906 10.878906 0.703125 10.671875 0.734375 C 10.515625 0.734375 10.382812 0.6875 10.28125 0.59375 C 10.175781 0.5 10.109375 0.375 10.078125 0.21875 C 10.078125 0.1875 10.054688 0.0625 10.015625 -0.15625 C 9.984375 -0.382812 9.945312 -0.671875 9.90625 -1.015625 C 9.457031 -0.515625 8.925781 -0.0976562 8.3125 0.234375 C 7.695312 0.566406 6.984375 0.734375 6.171875 0.734375 C 5.578125 0.734375 5.035156 0.613281 4.546875 0.375 C 4.066406 0.132812 3.65625 -0.175781 3.3125 -0.5625 C 2.96875 -0.945312 2.703125 -1.378906 2.515625 -1.859375 C 2.328125 -2.335938 2.234375 -2.828125 2.234375 -3.328125 C 2.234375 -3.753906 2.210938 -4.160156 2.171875 -4.546875 C 2.140625 -4.941406 2.101562 -5.300781 2.0625 -5.625 C 2.03125 -5.914062 2 -6.191406 1.96875 -6.453125 C 1.945312 -6.722656 1.9375 -6.984375 1.9375 -7.234375 C 1.9375 -7.523438 1.925781 -7.785156 1.90625 -8.015625 C 1.894531 -8.242188 1.875 -8.441406 1.84375 -8.609375 C 1.832031 -8.742188 1.820312 -8.863281 1.8125 -8.96875 C 1.8125 -9.070312 1.8125 -9.179688 1.8125 -9.296875 C 1.8125 -9.503906 1.785156 -9.710938 1.734375 -9.921875 C 1.679688 -10.140625 1.625 -10.34375 1.5625 -10.53125 C 1.5 -10.726562 1.429688 -10.90625 1.359375 -11.0625 C 1.285156 -11.21875 1.226562 -11.34375 1.1875 -11.4375 C 1.125 -11.5 1.09375 -11.585938 1.09375 -11.703125 C 1.09375 -11.953125 1.203125 -12.132812 1.421875 -12.25 C 1.503906 -12.289062 1.597656 -12.3125 1.703125 -12.3125 C 1.941406 -12.3125 2.117188 -12.210938 2.234375 -12.015625 C 2.234375 -11.992188 2.273438 -11.898438 2.359375 -11.734375 C 2.453125 -11.578125 2.539062 -11.367188 2.625 -11.109375 C 2.71875 -10.847656 2.804688 -10.5625 2.890625 -10.25 C 2.972656 -9.9375 3.015625 -9.617188 3.015625 -9.296875 C 3.015625 -9.234375 3.015625 -9.148438 3.015625 -9.046875 C 3.023438 -8.941406 3.035156 -8.832031 3.046875 -8.71875 C 3.078125 -8.53125 3.097656 -8.316406 3.109375 -8.078125 C 3.128906 -7.847656 3.140625 -7.566406 3.140625 -7.234375 C 3.140625 -7.023438 3.148438 -6.800781 3.171875 -6.5625 C 3.203125 -6.320312 3.234375 -6.0625 3.265625 -5.78125 C 3.296875 -5.40625 3.332031 -5.015625 3.375 -4.609375 C 3.414062 -4.210938 3.4375 -3.785156 3.4375 -3.328125 C 3.4375 -3.023438 3.492188 -2.707031 3.609375 -2.375 C 3.734375 -2.050781 3.910156 -1.742188 4.140625 -1.453125 C 4.367188 -1.171875 4.648438 -0.9375 4.984375 -0.75 C 5.328125 -0.5625 5.722656 -0.46875 6.171875 -0.46875 C 6.609375 -0.46875 7.003906 -0.53125 7.359375 -0.65625 C 7.722656 -0.789062 8.046875 -0.960938 8.328125 -1.171875 C 8.617188 -1.390625 8.875 -1.628906 9.09375 -1.890625 C 9.320312 -2.160156 9.515625 -2.441406 9.671875 -2.734375 C 9.597656 -3.265625 9.535156 -3.789062 9.484375 -4.3125 C 9.429688 -4.84375 9.394531 -5.328125 9.375 -5.765625 C 9.34375 -6.265625 9.285156 -6.832031 9.203125 -7.46875 C 9.128906 -8.113281 9.050781 -8.722656 8.96875 -9.296875 C 8.894531 -9.867188 8.820312 -10.359375 8.75 -10.765625 C 8.6875 -11.179688 8.65625 -11.40625 8.65625 -11.4375 C 8.65625 -11.570312 8.703125 -11.695312 8.796875 -11.8125 C 8.898438 -11.925781 9.054688 -12 9.265625 -12.03125 C 9.398438 -12.03125 9.519531 -11.984375 9.625 -11.890625 C 9.738281 -11.796875 9.8125 -11.675781 9.84375 -11.53125 C 9.84375 -11.488281 9.875 -11.265625 9.9375 -10.859375 C 10 -10.460938 10.070312 -9.976562 10.15625 -9.40625 C 10.25 -8.832031 10.332031 -8.21875 10.40625 -7.5625 C 10.488281 -6.914062 10.546875 -6.335938 10.578125 -5.828125 C 10.578125 -5.710938 10.578125 -5.59375 10.578125 -5.46875 C 10.585938 -5.34375 10.597656 -5.210938 10.609375 -5.078125 C 10.679688 -5.140625 10.757812 -5.191406 10.84375 -5.234375 C 10.9375 -5.285156 11.0625 -5.300781 11.21875 -5.28125 Z M 11.21875 -5.28125 "/></g></g></g><g fill="#6d5133" fill-opacity="1"><g transform="translate(221.371463, 255.465804)"><g><path d="M 8.40625 -11.21875 C 8.53125 -11.1875 8.632812 -11.101562 8.71875 -10.96875 C 8.8125 -10.84375 8.847656 -10.679688 8.828125 -10.484375 C 8.753906 -10.179688 8.507812 -10.03125 8.09375 -10.03125 C 8.09375 -10.050781 7.828125 -10.101562 7.296875 -10.1875 C 6.773438 -10.269531 6.066406 -10.316406 5.171875 -10.328125 C 5.222656 -9.515625 5.25 -8.84375 5.25 -8.3125 C 5.25 -8.039062 5.265625 -7.65625 5.296875 -7.15625 C 5.328125 -6.65625 5.367188 -6.109375 5.421875 -5.515625 C 5.472656 -4.921875 5.523438 -4.3125 5.578125 -3.6875 C 5.640625 -3.0625 5.695312 -2.492188 5.75 -1.984375 C 5.8125 -1.472656 5.859375 -1.050781 5.890625 -0.71875 C 5.929688 -0.382812 5.953125 -0.207031 5.953125 -0.1875 C 5.953125 -0.03125 5.894531 0.0976562 5.78125 0.203125 C 5.675781 0.304688 5.53125 0.375 5.34375 0.40625 C 5.1875 0.40625 5.050781 0.351562 4.9375 0.25 C 4.820312 0.15625 4.757812 0.03125 4.75 -0.125 C 4.75 -0.164062 4.726562 -0.359375 4.6875 -0.703125 C 4.644531 -1.046875 4.597656 -1.472656 4.546875 -1.984375 C 4.492188 -2.492188 4.4375 -3.054688 4.375 -3.671875 C 4.320312 -4.285156 4.269531 -4.890625 4.21875 -5.484375 C 4.164062 -6.078125 4.125 -6.625 4.09375 -7.125 C 4.0625 -7.632812 4.046875 -8.03125 4.046875 -8.3125 C 4.046875 -8.851562 4.019531 -9.515625 3.96875 -10.296875 C 3.601562 -10.265625 3.238281 -10.226562 2.875 -10.1875 C 2.519531 -10.144531 2.203125 -10.101562 1.921875 -10.0625 C 1.640625 -10.03125 1.410156 -10 1.234375 -9.96875 C 1.054688 -9.9375 0.953125 -9.921875 0.921875 -9.921875 C 0.773438 -9.921875 0.644531 -9.972656 0.53125 -10.078125 C 0.414062 -10.179688 0.347656 -10.332031 0.328125 -10.53125 C 0.328125 -10.675781 0.375 -10.800781 0.46875 -10.90625 C 0.5625 -11.007812 0.6875 -11.078125 0.84375 -11.109375 C 0.851562 -11.109375 0.945312 -11.125 1.125 -11.15625 C 1.300781 -11.195312 1.53125 -11.234375 1.8125 -11.265625 C 2.09375 -11.304688 2.410156 -11.34375 2.765625 -11.375 C 3.128906 -11.414062 3.503906 -11.445312 3.890625 -11.46875 C 3.859375 -11.875 3.820312 -12.269531 3.78125 -12.65625 C 3.75 -13.050781 3.710938 -13.429688 3.671875 -13.796875 C 3.640625 -14.171875 3.601562 -14.515625 3.5625 -14.828125 C 3.519531 -15.140625 3.476562 -15.410156 3.4375 -15.640625 C 3.4375 -15.785156 3.484375 -15.914062 3.578125 -16.03125 C 3.679688 -16.144531 3.835938 -16.21875 4.046875 -16.25 C 4.179688 -16.25 4.300781 -16.203125 4.40625 -16.109375 C 4.519531 -16.023438 4.59375 -15.90625 4.625 -15.75 C 4.71875 -15.300781 4.804688 -14.691406 4.890625 -13.921875 C 4.984375 -13.148438 5.066406 -12.351562 5.140625 -11.53125 C 5.617188 -11.53125 6.054688 -11.515625 6.453125 -11.484375 C 6.847656 -11.460938 7.1875 -11.429688 7.46875 -11.390625 C 7.75 -11.347656 7.96875 -11.304688 8.125 -11.265625 C 8.289062 -11.234375 8.382812 -11.21875 8.40625 -11.21875 Z M 8.40625 -11.21875 "/></g></g></g><g fill="#6d5133" fill-opacity="1"><g transform="translate(230.436259, 255.465804)"><g><path d="M 1.84375 -12.84375 C 1.601562 -12.84375 1.398438 -12.925781 1.234375 -13.09375 C 1.066406 -13.257812 0.984375 -13.460938 0.984375 -13.703125 C 0.984375 -13.953125 1.066406 -14.15625 1.234375 -14.3125 C 1.398438 -14.46875 1.601562 -14.546875 1.84375 -14.546875 C 2.070312 -14.546875 2.269531 -14.46875 2.4375 -14.3125 C 2.601562 -14.15625 2.6875 -13.953125 2.6875 -13.703125 C 2.6875 -13.460938 2.601562 -13.257812 2.4375 -13.09375 C 2.269531 -12.925781 2.070312 -12.84375 1.84375 -12.84375 Z M 2.125 -11.953125 C 2.28125 -11.953125 2.410156 -11.90625 2.515625 -11.8125 C 2.628906 -11.71875 2.703125 -11.597656 2.734375 -11.453125 C 2.734375 -11.410156 2.765625 -11.1875 2.828125 -10.78125 C 2.890625 -10.382812 2.960938 -9.898438 3.046875 -9.328125 C 3.140625 -8.753906 3.222656 -8.140625 3.296875 -7.484375 C 3.378906 -6.835938 3.429688 -6.253906 3.453125 -5.734375 C 3.484375 -5.234375 3.535156 -4.644531 3.609375 -3.96875 C 3.679688 -3.300781 3.757812 -2.660156 3.84375 -2.046875 C 3.925781 -1.441406 4 -0.921875 4.0625 -0.484375 C 4.132812 -0.046875 4.171875 0.1875 4.171875 0.21875 C 4.171875 0.375 4.117188 0.503906 4.015625 0.609375 C 3.921875 0.722656 3.769531 0.789062 3.5625 0.8125 C 3.40625 0.8125 3.273438 0.765625 3.171875 0.671875 C 3.066406 0.578125 3 0.453125 2.96875 0.296875 C 2.96875 0.253906 2.929688 0.0195312 2.859375 -0.40625 C 2.796875 -0.832031 2.722656 -1.347656 2.640625 -1.953125 C 2.554688 -2.566406 2.476562 -3.210938 2.40625 -3.890625 C 2.332031 -4.566406 2.28125 -5.160156 2.25 -5.671875 C 2.226562 -6.171875 2.175781 -6.742188 2.09375 -7.390625 C 2.019531 -8.035156 1.941406 -8.644531 1.859375 -9.21875 C 1.773438 -9.789062 1.703125 -10.28125 1.640625 -10.6875 C 1.578125 -11.09375 1.546875 -11.3125 1.546875 -11.34375 C 1.546875 -11.488281 1.585938 -11.617188 1.671875 -11.734375 C 1.765625 -11.847656 1.890625 -11.921875 2.046875 -11.953125 Z M 2.125 -11.953125 "/></g></g></g><g fill="#6d5133" fill-opacity="1"><g transform="translate(235.698996, 255.465804)"><g><path d="M 5.96875 -10.828125 C 5.84375 -10.828125 5.585938 -10.757812 5.203125 -10.625 C 4.828125 -10.488281 4.4375 -10.242188 4.03125 -9.890625 C 3.625 -9.546875 3.242188 -9.0625 2.890625 -8.4375 C 2.535156 -7.8125 2.316406 -7.007812 2.234375 -6.03125 C 2.472656 -6.09375 2.75 -6.160156 3.0625 -6.234375 C 3.375 -6.304688 3.679688 -6.375 3.984375 -6.4375 C 4.296875 -6.5 4.585938 -6.550781 4.859375 -6.59375 C 5.140625 -6.632812 5.367188 -6.65625 5.546875 -6.65625 C 5.742188 -6.65625 5.992188 -6.703125 6.296875 -6.796875 C 6.609375 -6.890625 6.914062 -6.988281 7.21875 -7.09375 C 7.457031 -7.175781 7.6875 -7.25 7.90625 -7.3125 C 8.125 -7.375 8.332031 -7.4375 8.53125 -7.5 C 8.46875 -8.070312 8.34375 -8.566406 8.15625 -8.984375 C 7.976562 -9.398438 7.765625 -9.742188 7.515625 -10.015625 C 7.273438 -10.285156 7.019531 -10.488281 6.75 -10.625 C 6.476562 -10.757812 6.21875 -10.828125 5.96875 -10.828125 Z M 10.03125 -0.984375 C 10.1875 -0.984375 10.316406 -0.929688 10.421875 -0.828125 C 10.535156 -0.734375 10.609375 -0.585938 10.640625 -0.390625 C 10.640625 -0.234375 10.59375 -0.101562 10.5 0 C 10.40625 0.113281 10.28125 0.1875 10.125 0.21875 C 10.09375 0.21875 9.960938 0.234375 9.734375 0.265625 C 9.503906 0.304688 9.226562 0.347656 8.90625 0.390625 C 8.59375 0.429688 8.265625 0.460938 7.921875 0.484375 C 7.578125 0.515625 7.285156 0.53125 7.046875 0.53125 C 5.140625 0.53125 3.675781 0.0234375 2.65625 -0.984375 C 1.644531 -1.992188 1.085938 -3.414062 0.984375 -5.25 C 0.960938 -6.175781 1.046875 -6.988281 1.234375 -7.6875 C 1.429688 -8.394531 1.691406 -9 2.015625 -9.5 C 2.335938 -10 2.695312 -10.410156 3.09375 -10.734375 C 3.5 -11.066406 3.890625 -11.328125 4.265625 -11.515625 C 4.640625 -11.703125 4.984375 -11.832031 5.296875 -11.90625 C 5.609375 -11.988281 5.832031 -12.03125 5.96875 -12.03125 C 6.34375 -12.03125 6.738281 -11.9375 7.15625 -11.75 C 7.582031 -11.5625 7.976562 -11.273438 8.34375 -10.890625 C 8.707031 -10.515625 9.019531 -10.035156 9.28125 -9.453125 C 9.539062 -8.867188 9.695312 -8.175781 9.75 -7.375 C 9.84375 -7.257812 9.890625 -7.128906 9.890625 -6.984375 C 9.890625 -6.835938 9.84375 -6.71875 9.75 -6.625 C 9.675781 -6.332031 9.484375 -6.1875 9.171875 -6.1875 C 9.023438 -6.1875 8.90625 -6.226562 8.8125 -6.3125 C 8.425781 -6.226562 8.023438 -6.109375 7.609375 -5.953125 C 7.234375 -5.828125 6.863281 -5.710938 6.5 -5.609375 C 6.144531 -5.503906 5.828125 -5.453125 5.546875 -5.453125 C 5.390625 -5.453125 5.175781 -5.429688 4.90625 -5.390625 C 4.644531 -5.347656 4.351562 -5.289062 4.03125 -5.21875 C 3.71875 -5.144531 3.398438 -5.066406 3.078125 -4.984375 C 2.753906 -4.910156 2.46875 -4.835938 2.21875 -4.765625 C 2.269531 -3.878906 2.472656 -3.164062 2.828125 -2.625 C 3.179688 -2.09375 3.597656 -1.679688 4.078125 -1.390625 C 4.554688 -1.097656 5.0625 -0.90625 5.59375 -0.8125 C 6.132812 -0.71875 6.617188 -0.671875 7.046875 -0.671875 C 7.273438 -0.671875 7.550781 -0.679688 7.875 -0.703125 C 8.207031 -0.734375 8.523438 -0.769531 8.828125 -0.8125 C 9.128906 -0.851562 9.394531 -0.890625 9.625 -0.921875 L 9.953125 -0.96875 Z M 10.03125 -0.984375 "/></g></g></g><g fill="#6d5133" fill-opacity="1"><g transform="translate(246.546678, 255.465804)"><g><path d="M 6.71875 -7.34375 C 9.257812 -6.113281 10.53125 -4.816406 10.53125 -3.453125 C 10.53125 -3.046875 10.4375 -2.640625 10.25 -2.234375 C 10.0625 -1.835938 9.835938 -1.46875 9.578125 -1.125 C 9.328125 -0.789062 9.0625 -0.5 8.78125 -0.25 C 8.5 0 8.265625 0.175781 8.078125 0.28125 C 7.910156 0.382812 7.6875 0.476562 7.40625 0.5625 C 7.125 0.65625 6.835938 0.738281 6.546875 0.8125 C 6.253906 0.882812 5.972656 0.941406 5.703125 0.984375 C 5.441406 1.023438 5.222656 1.046875 5.046875 1.046875 C 4.671875 1.046875 4.269531 0.984375 3.84375 0.859375 C 3.425781 0.742188 3.023438 0.546875 2.640625 0.265625 C 2.253906 -0.015625 1.90625 -0.382812 1.59375 -0.84375 C 1.289062 -1.300781 1.050781 -1.863281 0.875 -2.53125 C 0.875 -2.851562 1.078125 -3.054688 1.484375 -3.140625 C 1.609375 -3.140625 1.726562 -3.097656 1.84375 -3.015625 C 1.957031 -2.941406 2.03125 -2.832031 2.0625 -2.6875 C 2.21875 -2.082031 2.441406 -1.613281 2.734375 -1.28125 C 3.035156 -0.945312 3.335938 -0.691406 3.640625 -0.515625 C 3.953125 -0.347656 4.238281 -0.242188 4.5 -0.203125 C 4.769531 -0.171875 4.953125 -0.15625 5.046875 -0.15625 C 5.179688 -0.15625 5.363281 -0.171875 5.59375 -0.203125 C 5.820312 -0.242188 6.050781 -0.296875 6.28125 -0.359375 C 6.519531 -0.421875 6.75 -0.488281 6.96875 -0.5625 C 7.195312 -0.632812 7.367188 -0.707031 7.484375 -0.78125 C 7.609375 -0.84375 7.773438 -0.972656 7.984375 -1.171875 C 8.203125 -1.367188 8.40625 -1.59375 8.59375 -1.84375 C 8.789062 -2.09375 8.960938 -2.359375 9.109375 -2.640625 C 9.253906 -2.929688 9.328125 -3.203125 9.328125 -3.453125 C 9.328125 -3.597656 9.28125 -3.765625 9.1875 -3.953125 C 9.101562 -4.148438 8.953125 -4.367188 8.734375 -4.609375 C 8.515625 -4.847656 8.195312 -5.101562 7.78125 -5.375 C 7.375 -5.644531 6.847656 -5.9375 6.203125 -6.25 C 5.796875 -6.445312 5.363281 -6.65625 4.90625 -6.875 C 4.457031 -7.09375 4.039062 -7.289062 3.65625 -7.46875 C 3.269531 -7.644531 2.945312 -7.796875 2.6875 -7.921875 L 2.296875 -8.09375 L 1.953125 -8.25 L 1.953125 -8.640625 C 1.953125 -9.296875 2.113281 -9.867188 2.4375 -10.359375 C 2.769531 -10.859375 3.171875 -11.273438 3.640625 -11.609375 C 4.117188 -11.953125 4.617188 -12.207031 5.140625 -12.375 C 5.671875 -12.550781 6.132812 -12.640625 6.53125 -12.640625 C 6.945312 -12.640625 7.296875 -12.585938 7.578125 -12.484375 C 7.867188 -12.378906 8.109375 -12.265625 8.296875 -12.140625 C 8.484375 -12.023438 8.625 -11.910156 8.71875 -11.796875 C 8.8125 -11.691406 8.863281 -11.628906 8.875 -11.609375 C 8.945312 -11.503906 8.984375 -11.394531 8.984375 -11.28125 C 8.984375 -11.0625 8.890625 -10.894531 8.703125 -10.78125 C 8.585938 -10.707031 8.476562 -10.671875 8.375 -10.671875 C 8.164062 -10.671875 8.003906 -10.765625 7.890625 -10.953125 C 7.867188 -10.953125 7.832031 -10.976562 7.78125 -11.03125 C 7.738281 -11.082031 7.660156 -11.132812 7.546875 -11.1875 C 7.441406 -11.25 7.304688 -11.304688 7.140625 -11.359375 C 6.972656 -11.410156 6.769531 -11.4375 6.53125 -11.4375 C 6.289062 -11.4375 6 -11.382812 5.65625 -11.28125 C 5.3125 -11.175781 4.96875 -11.019531 4.625 -10.8125 C 4.28125 -10.601562 3.96875 -10.347656 3.6875 -10.046875 C 3.414062 -9.753906 3.25 -9.40625 3.1875 -9 C 3.363281 -8.914062 3.585938 -8.8125 3.859375 -8.6875 C 4.140625 -8.570312 4.441406 -8.4375 4.765625 -8.28125 C 5.085938 -8.132812 5.421875 -7.976562 5.765625 -7.8125 C 6.109375 -7.644531 6.425781 -7.488281 6.71875 -7.34375 Z M 6.71875 -7.34375 "/></g></g></g></svg>